<svg id="svg" version="1.1" xmlns="http://www.w3.org/2000/svg" xmlns:xlink="http://www.w3.org/1999/xlink" width="400" height="400" viewBox="0, 0, 400,400"><g id="svgg"><path id="path0" d="M213.569 15.367 C 212.977 16.012,213.397 16.746,214.030 16.173 C 214.454 15.789,214.800 15.444,214.800 15.405 C 214.800 15.336,213.631 15.299,213.569 15.367 M191.569 41.367 C 190.977 42.012,191.397 42.746,192.030 42.173 C 192.454 41.789,192.800 41.444,192.800 41.405 C 192.800 41.336,191.631 41.299,191.569 41.367 M185.569 49.367 C 184.977 50.012,185.397 50.746,186.030 50.173 C 186.454 49.789,186.800 49.444,186.800 49.405 C 186.800 49.336,185.631 49.299,185.569 49.367 M151.569 95.367 C 150.977 96.012,151.397 96.746,152.030 96.173 C 152.454 95.789,152.800 95.444,152.800 95.405 C 152.800 95.336,151.631 95.299,151.569 95.367 M117.569 141.367 C 116.977 142.012,117.397 142.746,118.030 142.173 C 118.454 141.789,118.800 141.444,118.800 141.405 C 118.800 141.336,117.631 141.299,117.569 141.367 M83.569 187.367 C 82.977 188.012,83.397 188.746,84.030 188.173 C 84.454 187.789,84.800 187.444,84.800 187.405 C 84.800 187.336,83.631 187.299,83.569 187.367 M77.569 195.367 C 76.977 196.012,77.397 196.746,78.030 196.173 C 78.454 195.789,78.800 195.444,78.800 195.405 C 78.800 195.336,77.631 195.299,77.569 195.367 M196.600 241.070 C 196.160 241.167,195.530 241.355,195.200 241.487 C 194.870 241.619,194.455 241.695,194.277 241.656 C 193.184 241.415,191.200 242.955,191.200 244.046 C 191.200 245.010,191.036 245.200,190.200 245.200 C 189.244 245.200,189.200 245.307,189.200 247.600 C 189.200 249.814,189.458 250.408,190.130 249.737 C 190.275 249.592,190.170 249.187,189.897 248.837 C 189.457 248.273,189.481 248.263,190.100 248.749 C 190.485 249.051,190.800 249.180,190.800 249.035 C 190.800 248.890,191.187 248.979,191.661 249.232 C 192.358 249.606,192.481 249.588,192.309 249.141 C 191.935 248.164,195.003 248.739,196.036 249.839 C 196.543 250.378,197.398 250.800,197.985 250.800 C 198.710 250.800,199.634 251.413,201.000 252.800 C 202.366 254.187,203.290 254.800,204.015 254.800 C 204.613 254.800,205.463 255.228,206.000 255.800 C 206.544 256.379,207.386 256.800,208.000 256.800 C 208.614 256.800,209.456 257.221,210.000 257.800 C 210.542 258.377,211.386 258.800,211.995 258.800 C 212.650 258.800,213.495 259.265,214.225 260.026 C 214.871 260.700,217.199 262.120,219.400 263.182 C 221.600 264.244,223.743 265.492,224.162 265.956 C 224.581 266.420,225.405 266.800,225.992 266.800 C 226.615 266.800,227.453 267.217,228.000 267.800 C 228.544 268.379,229.386 268.800,230.000 268.800 C 230.614 268.800,231.456 269.221,232.000 269.800 C 232.572 270.409,233.381 270.800,234.070 270.800 C 235.009 270.800,235.200 270.969,235.200 271.800 C 235.200 272.463,235.423 272.800,235.861 272.800 C 236.893 272.800,241.314 275.014,242.162 275.954 C 242.581 276.419,243.402 276.800,243.987 276.800 C 244.657 276.800,245.485 277.259,246.225 278.041 C 246.871 278.723,248.300 279.687,249.400 280.183 C 250.500 280.679,251.743 281.470,252.162 281.942 C 252.581 282.414,253.381 282.800,253.940 282.800 C 254.499 282.800,255.461 283.284,256.078 283.875 L 257.200 284.950 257.200 284.005 L 257.200 283.061 258.130 283.934 C 258.641 284.414,259.151 284.716,259.263 284.604 C 259.375 284.492,259.467 284.653,259.467 284.962 C 259.467 285.297,259.224 285.431,258.868 285.294 C 258.500 285.153,258.372 285.232,258.537 285.498 C 258.684 285.736,258.579 286.023,258.302 286.134 C 257.903 286.295,257.903 286.343,258.300 286.368 C 258.881 286.405,258.991 288.000,258.413 288.000 C 258.199 288.000,258.127 288.267,258.253 288.593 C 258.418 289.024,258.673 289.082,259.187 288.807 C 259.576 288.599,259.997 288.530,260.121 288.654 C 260.245 288.778,260.558 288.750,260.816 288.590 C 261.164 288.375,261.145 288.211,260.743 287.956 C 260.300 287.676,260.311 287.610,260.800 287.600 C 261.333 287.589,261.333 287.545,260.800 287.200 C 260.344 286.906,260.511 286.811,261.492 286.806 C 262.535 286.801,262.833 286.607,263.036 285.800 C 263.193 285.174,263.570 284.800,264.043 284.800 C 264.460 284.800,264.822 284.620,264.850 284.400 C 264.877 284.180,264.945 283.820,265.000 283.600 C 265.055 283.380,265.123 282.673,265.150 282.028 C 265.188 281.136,265.415 280.825,266.100 280.728 C 266.595 280.658,267.022 280.375,267.050 280.100 C 267.078 279.825,267.123 279.433,267.150 279.228 C 267.178 279.023,267.605 278.798,268.100 278.728 C 268.595 278.658,269.022 278.375,269.050 278.100 C 269.078 277.825,269.123 277.420,269.150 277.200 C 269.178 276.980,269.541 276.800,269.957 276.800 C 270.843 276.800,271.200 276.053,271.200 274.195 C 271.200 273.111,271.371 272.831,272.100 272.728 C 272.678 272.646,273.046 272.278,273.128 271.700 C 273.209 271.125,273.532 270.800,274.020 270.800 C 274.502 270.800,274.878 270.430,275.036 269.800 C 275.191 269.182,275.571 268.800,276.030 268.800 C 276.618 268.800,276.827 268.388,277.035 266.821 C 277.249 265.209,277.455 264.820,278.149 264.721 C 278.679 264.646,279.048 264.260,279.128 263.700 C 279.209 263.125,279.532 262.800,280.020 262.800 C 280.502 262.800,280.878 262.430,281.036 261.800 C 281.191 261.182,281.571 260.800,282.030 260.800 C 282.619 260.800,282.827 260.387,283.038 258.800 C 283.272 257.037,283.415 256.800,284.252 256.800 C 284.997 256.800,285.200 256.586,285.200 255.800 C 285.200 255.086,285.416 254.800,285.957 254.800 C 286.843 254.800,287.200 254.053,287.200 252.195 C 287.200 251.111,287.371 250.831,288.100 250.728 C 288.678 250.646,289.046 250.278,289.128 249.700 C 289.220 249.049,289.524 248.800,290.228 248.800 C 290.998 248.800,291.200 248.592,291.200 247.800 C 291.200 247.086,291.416 246.800,291.957 246.800 C 292.843 246.800,293.200 246.053,293.200 244.195 C 293.200 243.130,293.376 242.829,294.062 242.728 C 294.598 242.648,294.975 242.259,295.060 241.700 L 295.195 240.800 246.297 240.846 C 219.404 240.872,197.040 240.972,196.600 241.070 M189.200 251.049 C 189.200 251.580,189.309 251.608,189.800 251.200 C 190.130 250.926,190.400 250.634,190.400 250.551 C 190.400 250.468,190.130 250.400,189.800 250.400 C 189.470 250.400,189.200 250.692,189.200 251.049 M187.254 256.900 C 187.289 257.989,187.373 258.241,187.488 257.600 C 187.587 257.050,187.832 256.429,188.034 256.220 C 188.581 255.653,188.477 255.200,187.800 255.200 C 187.352 255.200,187.214 255.631,187.254 256.900 M185.467 265.467 C 185.320 265.613,185.200 266.093,185.200 266.533 C 185.200 267.515,185.565 267.218,185.790 266.054 C 185.964 265.151,185.899 265.034,185.467 265.467 M183.570 275.267 C 183.266 276.632,183.292 277.209,183.667 277.442 C 183.934 277.607,184.014 277.547,183.861 277.298 C 183.427 276.597,184.028 275.414,184.486 276.066 C 184.789 276.498,184.831 276.490,184.705 276.025 C 184.570 275.522,183.650 274.908,183.570 275.267 M257.570 289.900 C 257.438 291.231,257.102 292.214,256.690 292.477 C 256.398 292.662,256.726 292.790,257.500 292.794 C 258.215 292.797,258.814 292.665,258.831 292.500 C 258.847 292.335,258.922 291.885,258.995 291.500 C 259.086 291.025,258.876 290.800,258.341 290.800 C 257.884 290.800,257.664 290.621,257.817 290.373 C 257.962 290.138,258.333 290.042,258.640 290.160 C 258.948 290.278,259.200 290.201,259.200 289.987 C 259.200 289.537,257.615 289.452,257.570 289.900 M256.400 293.613 C 256.400 293.840,255.995 294.189,255.500 294.388 C 254.683 294.716,254.720 294.752,255.900 294.775 C 256.942 294.795,257.200 294.641,257.200 294.000 C 257.200 293.560,257.020 293.200,256.800 293.200 C 256.580 293.200,256.400 293.386,256.400 293.613 M251.733 300.267 C 251.733 300.560,251.973 300.800,252.267 300.800 C 252.560 300.800,252.800 300.560,252.800 300.267 C 252.800 299.973,252.560 299.733,252.267 299.733 C 251.973 299.733,251.733 299.973,251.733 300.267 M245.733 308.267 C 245.733 308.560,245.973 308.800,246.267 308.800 C 246.560 308.800,246.800 308.560,246.800 308.267 C 246.800 307.973,246.560 307.733,246.267 307.733 C 245.973 307.733,245.733 307.973,245.733 308.267 M241.067 313.067 C 240.920 313.213,240.800 313.661,240.800 314.062 C 240.800 315.215,242.618 314.890,242.715 313.719 C 242.789 312.823,241.730 312.403,241.067 313.067 " stroke="none" fill="#279b65" fill-rule="evenodd"></path><path id="path1" d="M207.685 240.383 C 194.314 240.568,191.914 240.689,191.591 241.200 C 190.811 242.435,191.316 243.324,192.261 242.379 C 192.493 242.147,193.121 241.911,193.658 241.854 C 194.195 241.797,194.896 241.581,195.217 241.375 C 195.567 241.150,215.291 240.920,244.600 240.800 C 271.440 240.690,292.680 240.467,291.800 240.304 C 290.053 239.982,232.869 240.035,207.685 240.383 M189.922 248.868 C 190.363 249.431,190.332 249.601,189.722 249.956 C 189.036 250.355,189.038 250.376,189.762 250.388 C 190.460 250.399,190.471 250.459,189.897 251.100 C 189.513 251.528,189.309 252.374,189.372 253.278 C 189.428 254.091,189.325 254.991,189.143 255.278 C 188.961 255.565,188.809 255.625,188.806 255.411 C 188.803 255.197,188.499 255.452,188.131 255.976 C 187.650 256.665,187.412 258.082,187.279 261.055 C 187.127 264.487,186.982 265.215,186.415 265.395 C 185.646 265.639,185.634 265.685,185.409 269.033 C 185.279 270.963,185.365 271.467,185.823 271.467 C 186.140 271.467,186.400 271.231,186.400 270.943 C 186.400 270.131,188.820 270.739,190.022 271.853 C 190.584 272.374,191.498 272.800,192.052 272.800 C 192.611 272.800,193.480 273.246,194.000 273.800 C 194.544 274.379,195.386 274.800,196.000 274.800 C 196.614 274.800,197.456 275.221,198.000 275.800 C 198.572 276.409,199.381 276.800,200.070 276.800 C 201.009 276.800,201.200 276.969,201.200 277.800 C 201.200 278.578,201.405 278.800,202.125 278.800 C 202.643 278.800,203.568 279.349,204.225 280.046 C 205.586 281.489,208.350 282.800,210.033 282.800 C 211.011 282.800,211.200 282.962,211.200 283.800 C 211.200 284.580,211.405 284.800,212.130 284.800 C 212.642 284.800,213.483 285.250,214.000 285.800 C 214.774 286.624,215.315 286.800,217.070 286.800 C 219.075 286.800,219.200 286.859,219.200 287.800 C 219.200 288.575,219.406 288.800,220.115 288.800 C 220.684 288.800,221.776 289.557,223.000 290.800 C 224.083 291.900,225.337 292.802,225.785 292.804 C 226.233 292.806,227.500 293.250,228.600 293.791 C 229.700 294.332,231.185 294.781,231.900 294.787 C 233.017 294.798,233.200 294.941,233.200 295.800 C 233.200 296.580,233.405 296.800,234.130 296.800 C 234.642 296.800,235.483 297.250,236.000 297.800 C 236.544 298.379,237.386 298.800,238.000 298.800 C 238.602 298.800,239.450 299.214,239.960 299.758 C 240.598 300.436,241.493 300.794,243.030 300.986 C 244.639 301.187,245.200 301.423,245.200 301.897 C 245.200 302.249,245.461 302.825,245.780 303.178 C 246.200 303.641,246.244 303.981,245.942 304.409 C 245.596 304.899,245.563 304.880,245.750 304.300 C 245.874 303.915,245.801 303.600,245.587 303.600 C 245.374 303.600,245.200 303.960,245.200 304.400 C 245.200 304.840,245.391 305.200,245.624 305.200 C 245.857 305.200,245.934 305.383,245.796 305.607 C 245.658 305.830,245.399 305.923,245.221 305.813 C 245.043 305.703,244.783 306.183,244.644 306.880 C 244.482 307.690,244.566 308.255,244.876 308.447 C 245.476 308.818,246.098 308.483,245.777 307.962 C 245.647 307.752,245.770 307.630,246.051 307.690 C 246.395 307.764,246.559 307.311,246.554 306.300 C 246.547 304.920,246.636 304.800,247.673 304.800 C 248.608 304.800,248.800 304.630,248.800 303.800 C 248.800 303.000,249.000 302.800,249.800 302.800 C 250.644 302.800,250.800 302.613,250.800 301.600 C 250.800 300.853,250.989 300.438,251.300 300.500 C 251.575 300.555,251.755 300.375,251.700 300.100 C 251.645 299.825,251.817 299.645,252.082 299.700 C 252.574 299.802,252.662 299.552,252.750 297.800 C 252.786 297.078,253.026 296.800,253.613 296.800 C 254.397 296.800,255.309 295.345,254.929 294.700 C 254.832 294.535,255.027 294.400,255.362 294.400 C 255.969 294.400,257.112 292.806,256.514 292.794 C 256.341 292.791,256.420 292.648,256.690 292.477 C 257.102 292.214,257.438 291.231,257.570 289.900 C 257.587 289.735,257.960 289.600,258.400 289.600 C 258.840 289.600,259.200 289.409,259.200 289.176 C 259.200 288.943,259.039 288.852,258.842 288.974 C 258.645 289.096,258.381 288.926,258.254 288.598 C 258.128 288.269,258.199 288.000,258.413 288.000 C 258.982 288.000,258.885 286.501,258.300 286.265 C 257.915 286.110,257.921 286.056,258.324 286.032 C 258.619 286.014,258.721 285.796,258.558 285.532 C 258.370 285.228,258.478 285.144,258.868 285.294 C 259.224 285.431,259.467 285.297,259.467 284.962 C 259.467 284.653,259.375 284.492,259.263 284.604 C 259.151 284.716,258.641 284.414,258.130 283.934 L 257.200 283.061 257.200 284.005 L 257.200 284.950 256.078 283.875 C 255.461 283.284,254.499 282.800,253.940 282.800 C 253.381 282.800,252.581 282.414,252.162 281.942 C 251.743 281.470,250.500 280.679,249.400 280.183 C 248.300 279.687,246.871 278.723,246.225 278.041 C 245.485 277.259,244.657 276.800,243.987 276.800 C 243.402 276.800,242.581 276.419,242.162 275.954 C 241.314 275.014,236.893 272.800,235.861 272.800 C 235.423 272.800,235.200 272.463,235.200 271.800 C 235.200 270.969,235.009 270.800,234.070 270.800 C 233.381 270.800,232.572 270.409,232.000 269.800 C 231.456 269.221,230.614 268.800,230.000 268.800 C 229.386 268.800,228.544 268.379,228.000 267.800 C 227.453 267.217,226.615 266.800,225.992 266.800 C 225.405 266.800,224.581 266.420,224.162 265.956 C 223.743 265.492,221.600 264.244,219.400 263.182 C 217.199 262.120,214.871 260.700,214.225 260.026 C 213.495 259.265,212.650 258.800,211.995 258.800 C 211.386 258.800,210.542 258.377,210.000 257.800 C 209.456 257.221,208.614 256.800,208.000 256.800 C 207.386 256.800,206.544 256.379,206.000 255.800 C 205.463 255.228,204.613 254.800,204.015 254.800 C 203.290 254.800,202.366 254.187,201.000 252.800 C 199.634 251.413,198.710 250.800,197.985 250.800 C 197.398 250.800,196.543 250.378,196.036 249.839 C 195.003 248.739,191.935 248.164,192.309 249.141 C 192.481 249.588,192.358 249.606,191.661 249.232 C 191.187 248.979,190.800 248.890,190.800 249.035 C 190.800 249.180,190.485 249.051,190.100 248.749 C 189.473 248.257,189.454 248.270,189.922 248.868 M184.800 275.800 C 184.800 276.130,184.511 276.400,184.157 276.400 C 183.763 276.400,183.600 276.622,183.735 276.974 C 183.856 277.290,183.740 277.645,183.478 277.764 C 183.215 277.882,183.439 277.939,183.975 277.890 C 184.847 277.810,185.862 275.200,185.022 275.200 C 184.900 275.200,184.800 275.470,184.800 275.800 M182.171 286.306 C 181.935 286.468,181.619 286.960,181.470 287.400 C 181.219 288.139,181.239 288.147,181.739 287.506 C 182.036 287.125,182.374 286.907,182.490 287.023 C 182.606 287.140,182.808 286.957,182.938 286.617 C 183.191 285.957,182.870 285.827,182.171 286.306 M244.400 309.624 C 244.400 309.857,244.192 309.919,243.938 309.762 C 243.665 309.593,243.584 309.651,243.741 309.904 C 243.886 310.139,243.779 310.419,243.502 310.525 C 243.226 310.631,243.369 310.701,243.821 310.680 C 244.489 310.649,245.227 309.200,244.575 309.200 C 244.479 309.200,244.400 309.391,244.400 309.624 M242.000 312.019 C 242.000 312.276,241.760 312.393,241.467 312.281 C 241.173 312.168,240.933 312.319,240.933 312.617 C 240.933 313.036,241.120 313.060,241.767 312.724 C 242.898 312.137,242.913 312.117,242.427 311.816 C 242.192 311.671,242.000 311.763,242.000 312.019 M239.467 315.667 C 239.063 316.107,238.808 316.541,238.898 316.632 C 238.989 316.723,239.486 316.348,240.001 315.798 C 240.517 315.249,240.773 314.815,240.570 314.833 C 240.366 314.852,239.870 315.227,239.467 315.667 M235.467 321.667 C 235.063 322.107,234.808 322.541,234.898 322.632 C 234.989 322.723,235.486 322.348,236.001 321.798 C 236.517 321.249,236.773 320.815,236.570 320.833 C 236.366 320.852,235.870 321.227,235.467 321.667 " stroke="none" fill="#2fad74" fill-rule="evenodd"></path><path id="path2" d="M215.171 16.275 C 214.875 17.054,214.533 17.200,213.010 17.200 C 211.370 17.200,211.200 17.289,211.200 18.153 C 211.200 18.782,210.917 19.181,210.370 19.324 C 209.914 19.443,209.453 19.876,209.346 20.286 C 209.238 20.696,208.757 21.204,208.275 21.416 C 207.794 21.627,207.342 22.208,207.271 22.706 C 207.201 23.204,207.012 23.531,206.852 23.432 C 206.139 22.992,205.389 24.052,205.231 25.724 C 205.214 25.902,205.065 25.965,204.900 25.866 C 204.509 25.629,203.574 26.640,203.891 26.957 C 204.024 27.091,203.923 27.200,203.667 27.200 C 203.410 27.200,203.200 27.637,203.200 28.172 C 203.200 28.876,202.951 29.180,202.300 29.272 C 201.656 29.364,201.364 29.712,201.273 30.500 C 201.204 31.105,200.976 31.600,200.768 31.600 C 200.559 31.600,200.032 32.185,199.596 32.900 C 199.160 33.615,198.802 34.058,198.801 33.884 C 198.801 33.711,198.549 33.801,198.242 34.084 C 197.935 34.368,197.766 34.735,197.866 34.900 C 197.965 35.065,197.857 35.200,197.624 35.200 C 197.391 35.200,197.221 35.335,197.247 35.500 C 197.413 36.548,197.085 37.161,196.300 37.272 C 195.623 37.368,195.339 37.746,195.153 38.800 C 195.017 39.570,194.882 40.058,194.853 39.884 C 194.824 39.711,194.549 39.801,194.242 40.084 C 193.935 40.368,193.766 40.735,193.866 40.900 C 193.965 41.065,193.857 41.200,193.624 41.200 C 193.391 41.200,193.200 41.564,193.200 42.010 C 193.200 42.506,192.812 42.967,192.200 43.200 C 191.588 43.433,191.200 43.894,191.200 44.390 C 191.200 44.987,190.937 45.200,190.200 45.200 C 189.321 45.200,189.200 45.372,189.200 46.624 C 189.200 47.407,189.065 47.965,188.900 47.866 C 188.509 47.629,187.574 48.640,187.891 48.957 C 188.024 49.091,187.936 49.200,187.694 49.200 C 187.453 49.200,187.198 49.605,187.128 50.100 C 187.046 50.678,186.678 51.046,186.100 51.128 C 185.457 51.219,185.200 51.525,185.200 52.201 C 185.200 52.801,184.902 53.241,184.384 53.405 C 183.900 53.559,183.472 54.138,183.335 54.826 C 183.207 55.464,182.990 55.919,182.851 55.835 C 182.493 55.620,181.598 56.665,181.891 56.957 C 182.024 57.091,181.923 57.200,181.667 57.200 C 181.410 57.200,181.200 57.637,181.200 58.172 C 181.200 58.876,180.951 59.180,180.300 59.272 C 179.728 59.353,179.354 59.721,179.275 60.281 C 179.206 60.766,178.793 61.275,178.358 61.413 C 177.901 61.558,177.469 62.154,177.335 62.826 C 177.207 63.464,176.990 63.919,176.851 63.835 C 176.493 63.620,175.598 64.665,175.891 64.957 C 176.024 65.091,175.923 65.200,175.667 65.200 C 175.410 65.200,175.200 65.637,175.200 66.172 C 175.200 66.876,174.951 67.180,174.300 67.272 C 173.722 67.354,173.354 67.722,173.272 68.300 C 173.149 69.167,172.792 69.374,171.677 69.225 C 171.390 69.186,171.186 69.390,171.225 69.677 C 171.364 70.719,171.194 72.128,170.957 71.891 C 170.640 71.574,169.629 72.509,169.866 72.900 C 169.965 73.065,169.857 73.200,169.624 73.200 C 169.391 73.200,169.200 73.637,169.200 74.172 C 169.200 74.876,168.951 75.180,168.300 75.272 C 167.656 75.364,167.364 75.712,167.273 76.500 C 167.204 77.105,166.976 77.600,166.768 77.600 C 166.559 77.600,166.032 78.185,165.596 78.900 C 165.160 79.615,164.802 80.058,164.801 79.884 C 164.801 79.711,164.549 79.801,164.242 80.084 C 163.935 80.368,163.766 80.735,163.866 80.900 C 163.965 81.065,163.857 81.200,163.624 81.200 C 163.391 81.200,163.200 81.637,163.200 82.172 C 163.200 82.876,162.951 83.180,162.300 83.272 C 161.623 83.368,161.339 83.746,161.153 84.800 C 161.017 85.570,160.882 86.058,160.853 85.884 C 160.824 85.711,160.549 85.801,160.242 86.084 C 159.935 86.368,159.736 86.690,159.800 86.800 C 159.864 86.910,159.665 87.232,159.358 87.516 C 159.051 87.799,158.800 87.927,158.800 87.800 C 158.800 87.673,158.549 87.801,158.242 88.084 C 157.935 88.368,157.766 88.735,157.866 88.900 C 157.965 89.065,157.857 89.200,157.624 89.200 C 157.391 89.200,157.221 89.335,157.247 89.500 C 157.434 90.682,157.115 91.200,156.200 91.200 C 155.321 91.200,155.200 91.372,155.200 92.624 C 155.200 93.407,155.065 93.965,154.900 93.866 C 154.509 93.629,153.574 94.640,153.891 94.957 C 154.024 95.091,153.936 95.200,153.694 95.200 C 153.453 95.200,153.198 95.605,153.128 96.100 C 153.046 96.678,152.678 97.046,152.100 97.128 C 151.449 97.220,151.200 97.524,151.200 98.228 C 151.200 98.998,150.992 99.200,150.200 99.200 C 149.321 99.200,149.200 99.372,149.200 100.624 C 149.200 101.407,149.065 101.965,148.900 101.866 C 148.509 101.629,147.574 102.640,147.891 102.957 C 148.024 103.091,147.923 103.200,147.667 103.200 C 147.410 103.200,147.200 103.637,147.200 104.172 C 147.200 104.876,146.951 105.180,146.300 105.272 C 145.728 105.353,145.354 105.721,145.275 106.281 C 145.206 106.766,144.793 107.275,144.358 107.413 C 143.901 107.558,143.469 108.154,143.335 108.826 C 143.207 109.464,142.990 109.919,142.851 109.835 C 142.493 109.620,141.598 110.665,141.891 110.957 C 142.024 111.091,141.923 111.200,141.667 111.200 C 141.410 111.200,141.200 111.637,141.200 112.172 C 141.200 112.876,140.951 113.180,140.300 113.272 C 139.722 113.354,139.354 113.722,139.272 114.300 C 139.149 115.167,138.792 115.374,137.677 115.225 C 137.390 115.186,137.186 115.390,137.225 115.677 C 137.364 116.719,137.194 118.128,136.957 117.891 C 136.640 117.574,135.629 118.509,135.866 118.900 C 135.965 119.065,135.857 119.200,135.624 119.200 C 135.391 119.200,135.200 119.637,135.200 120.172 C 135.200 120.876,134.951 121.180,134.300 121.272 C 133.654 121.364,133.364 121.712,133.273 122.507 C 133.203 123.116,133.014 123.532,132.854 123.433 C 132.130 122.986,131.372 124.077,131.231 125.767 C 131.214 125.968,131.091 126.024,130.957 125.891 C 130.640 125.574,129.629 126.509,129.866 126.900 C 129.965 127.065,129.857 127.200,129.624 127.200 C 129.391 127.200,129.200 127.637,129.200 128.172 C 129.200 128.876,128.951 129.180,128.300 129.272 C 127.623 129.368,127.339 129.746,127.153 130.800 C 127.017 131.570,126.882 132.058,126.853 131.884 C 126.824 131.711,126.549 131.801,126.242 132.084 C 125.935 132.368,125.736 132.690,125.800 132.800 C 125.864 132.910,125.665 133.232,125.358 133.516 C 125.051 133.799,124.800 133.927,124.800 133.800 C 124.800 133.673,124.549 133.801,124.242 134.084 C 123.935 134.368,123.766 134.735,123.866 134.900 C 123.965 135.065,123.857 135.200,123.624 135.200 C 123.391 135.200,123.221 135.335,123.247 135.500 C 123.434 136.682,123.115 137.200,122.200 137.200 C 121.315 137.200,121.200 137.369,121.200 138.667 C 121.200 139.473,121.091 140.024,120.957 139.891 C 120.640 139.574,119.629 140.509,119.866 140.900 C 119.965 141.065,119.857 141.200,119.624 141.200 C 119.391 141.200,119.200 141.564,119.200 142.010 C 119.200 142.506,118.812 142.967,118.200 143.200 C 117.588 143.433,117.200 143.894,117.200 144.390 C 117.200 144.987,116.937 145.200,116.200 145.200 C 115.315 145.200,115.200 145.369,115.200 146.667 C 115.200 147.473,115.091 148.024,114.957 147.891 C 114.640 147.574,113.629 148.509,113.866 148.900 C 113.965 149.065,113.857 149.200,113.624 149.200 C 113.391 149.200,113.200 149.637,113.200 150.172 C 113.200 150.876,112.951 151.180,112.300 151.272 C 111.728 151.353,111.354 151.721,111.275 152.281 C 111.206 152.766,110.793 153.275,110.358 153.413 C 109.901 153.558,109.469 154.154,109.335 154.826 C 109.207 155.464,108.990 155.919,108.851 155.835 C 108.493 155.620,107.598 156.665,107.891 156.957 C 108.024 157.091,107.923 157.200,107.667 157.200 C 107.410 157.200,107.200 157.637,107.200 158.172 C 107.200 158.876,106.951 159.180,106.300 159.272 C 105.728 159.353,105.354 159.721,105.275 160.281 C 105.206 160.766,104.793 161.275,104.358 161.413 C 103.901 161.558,103.469 162.154,103.335 162.826 C 103.207 163.464,102.990 163.919,102.851 163.835 C 102.493 163.620,101.598 164.665,101.891 164.957 C 102.024 165.091,101.923 165.200,101.667 165.200 C 101.410 165.200,101.200 165.637,101.200 166.172 C 101.200 166.876,100.951 167.180,100.300 167.272 C 99.654 167.364,99.364 167.712,99.273 168.507 C 99.203 169.116,99.014 169.532,98.854 169.433 C 98.139 168.992,97.389 170.050,97.231 171.724 C 97.214 171.902,97.065 171.965,96.900 171.866 C 96.509 171.629,95.574 172.640,95.891 172.957 C 96.024 173.091,95.923 173.200,95.667 173.200 C 95.410 173.200,95.200 173.637,95.200 174.172 C 95.200 174.876,94.951 175.180,94.300 175.272 C 93.656 175.364,93.364 175.712,93.273 176.500 C 93.204 177.105,92.976 177.600,92.768 177.600 C 92.559 177.600,92.032 178.185,91.596 178.900 C 91.160 179.615,90.802 180.058,90.801 179.884 C 90.801 179.711,90.549 179.801,90.242 180.084 C 89.935 180.368,89.766 180.735,89.866 180.900 C 89.965 181.065,89.857 181.200,89.624 181.200 C 89.391 181.200,89.221 181.335,89.247 181.500 C 89.413 182.548,89.085 183.161,88.300 183.272 C 87.623 183.368,87.339 183.746,87.153 184.800 C 87.017 185.570,86.882 186.058,86.853 185.884 C 86.824 185.711,86.549 185.801,86.242 186.084 C 85.935 186.368,85.766 186.735,85.866 186.900 C 85.965 187.065,85.857 187.200,85.624 187.200 C 85.391 187.200,85.200 187.564,85.200 188.010 C 85.200 188.506,84.812 188.967,84.200 189.200 C 83.588 189.433,83.200 189.894,83.200 190.390 C 83.200 190.987,82.937 191.200,82.200 191.200 C 81.321 191.200,81.200 191.372,81.200 192.624 C 81.200 193.407,81.065 193.965,80.900 193.866 C 80.509 193.629,79.574 194.640,79.891 194.957 C 80.024 195.091,79.936 195.200,79.694 195.200 C 79.453 195.200,79.198 195.605,79.128 196.100 C 79.046 196.678,78.678 197.046,78.100 197.128 C 77.457 197.219,77.200 197.525,77.200 198.201 C 77.200 198.801,76.902 199.241,76.384 199.405 C 75.900 199.559,75.472 200.138,75.335 200.826 C 75.207 201.464,74.990 201.919,74.851 201.835 C 74.493 201.620,73.598 202.665,73.891 202.957 C 74.024 203.091,73.923 203.200,73.667 203.200 C 73.410 203.200,73.200 203.637,73.200 204.172 C 73.200 204.876,72.951 205.180,72.300 205.272 C 71.623 205.368,71.339 205.746,71.153 206.800 C 71.017 207.570,70.882 208.058,70.853 207.884 C 70.824 207.711,70.549 207.801,70.242 208.084 C 69.935 208.368,69.766 208.735,69.866 208.900 C 69.965 209.065,69.889 209.200,69.695 209.200 C 69.501 209.200,69.302 210.101,69.252 211.202 C 69.184 212.678,68.918 213.446,68.238 214.125 C 67.230 215.134,66.739 222.800,67.683 222.800 C 67.917 222.800,67.858 223.096,67.549 223.477 C 67.236 223.862,67.203 224.032,67.472 223.870 C 67.732 223.714,68.060 223.773,68.200 224.000 C 68.340 224.227,68.592 224.328,68.760 224.225 C 68.927 224.121,69.105 225.063,69.155 226.318 C 69.204 227.573,69.422 228.663,69.639 228.739 C 69.872 228.821,69.822 229.138,69.517 229.516 C 69.183 229.928,69.167 230.053,69.472 229.870 C 69.732 229.714,70.060 229.773,70.200 230.000 C 70.340 230.227,70.585 230.333,70.745 230.234 C 71.000 230.077,71.147 230.626,71.291 232.278 C 71.314 232.541,71.438 232.744,71.567 232.730 C 72.735 232.604,73.200 232.901,73.200 233.772 C 73.200 234.476,73.449 234.780,74.100 234.872 C 74.709 234.959,74.993 235.265,74.977 235.819 C 74.960 236.409,75.231 236.661,75.945 236.720 C 77.146 236.820,77.226 236.891,77.304 237.927 C 77.338 238.377,77.464 238.736,77.583 238.725 C 79.368 238.563,80.069 238.838,79.562 239.500 C 79.267 239.885,79.186 240.065,79.381 239.899 C 79.576 239.734,80.096 239.914,80.536 240.299 C 81.106 240.798,81.238 240.827,80.992 240.400 C 80.716 239.921,80.763 239.890,81.223 240.245 C 81.540 240.490,83.150 240.728,84.800 240.775 C 86.911 240.834,87.895 241.028,88.120 241.430 C 88.394 241.919,95.626 242.000,138.846 242.000 C 174.204 242.000,189.494 242.129,190.061 242.432 C 191.004 242.937,191.658 242.534,190.788 241.984 C 190.390 241.732,190.361 241.610,190.700 241.606 C 190.975 241.603,191.200 241.352,191.200 241.049 C 191.200 239.607,192.392 239.571,243.435 239.485 C 288.847 239.408,293.522 239.459,294.418 240.045 C 295.390 240.681,298.114 238.688,297.972 237.445 C 297.950 237.249,298.172 236.941,298.466 236.759 C 298.760 236.578,299.022 236.243,299.050 236.015 C 299.078 235.787,299.123 235.420,299.150 235.200 C 299.178 234.980,299.611 234.800,300.113 234.800 C 300.811 234.800,301.046 234.551,301.113 233.740 C 301.227 232.362,301.888 231.593,302.729 231.862 C 303.288 232.040,303.302 232.006,302.815 231.662 C 302.327 231.316,302.409 231.108,303.319 230.392 C 303.918 229.921,304.305 229.370,304.180 229.168 C 304.055 228.966,304.143 228.800,304.376 228.800 C 304.609 228.800,304.800 228.350,304.800 227.800 C 304.800 227.000,305.000 226.800,305.800 226.800 C 306.679 226.800,306.800 226.628,306.800 225.376 C 306.800 224.593,306.960 224.051,307.155 224.172 C 307.595 224.444,308.492 223.425,308.130 223.063 C 307.889 222.823,308.940 222.625,309.730 222.763 C 309.911 222.794,309.944 222.632,309.802 222.403 C 309.661 222.174,309.360 222.101,309.134 222.241 C 308.895 222.389,308.783 222.185,308.866 221.752 C 308.945 221.343,309.343 220.945,309.752 220.866 C 310.185 220.783,310.389 220.895,310.241 221.134 C 310.101 221.360,310.134 221.636,310.313 221.747 C 310.493 221.858,310.684 221.292,310.738 220.489 C 310.853 218.786,310.860 218.776,311.927 218.696 C 312.377 218.662,312.736 218.536,312.725 218.417 C 312.633 217.404,312.853 215.919,313.063 216.130 C 313.425 216.492,314.444 215.595,314.172 215.155 C 313.976 214.837,314.867 214.613,315.730 214.763 C 315.911 214.794,315.944 214.632,315.802 214.403 C 315.661 214.174,315.360 214.101,315.134 214.241 C 314.895 214.389,314.783 214.185,314.866 213.752 C 314.945 213.343,315.343 212.945,315.752 212.866 C 316.185 212.783,316.389 212.895,316.241 213.134 C 316.101 213.360,316.174 213.661,316.403 213.802 C 316.632 213.944,316.794 213.911,316.763 213.730 C 316.479 212.096,316.869 210.846,317.700 210.728 C 318.377 210.632,318.661 210.254,318.847 209.200 C 318.983 208.430,319.118 207.957,319.147 208.149 C 319.176 208.341,319.468 208.276,319.796 208.004 C 320.123 207.732,320.293 207.350,320.172 207.155 C 320.051 206.960,320.143 206.800,320.376 206.800 C 320.609 206.800,320.800 206.350,320.800 205.800 C 320.800 205.000,321.000 204.800,321.800 204.800 C 322.592 204.800,322.800 204.598,322.800 203.828 C 322.800 203.124,323.049 202.820,323.700 202.728 C 324.377 202.632,324.661 202.254,324.847 201.200 C 324.983 200.430,325.118 199.957,325.147 200.149 C 325.176 200.341,325.468 200.276,325.796 200.004 C 326.123 199.732,326.293 199.350,326.172 199.155 C 326.051 198.960,326.143 198.800,326.376 198.800 C 326.609 198.800,326.800 198.350,326.800 197.800 C 326.800 197.000,327.000 196.800,327.800 196.800 C 328.685 196.800,328.800 196.631,328.800 195.333 C 328.800 194.527,328.918 193.985,329.063 194.130 C 329.425 194.492,330.444 193.595,330.172 193.155 C 330.051 192.960,330.143 192.800,330.376 192.800 C 330.624 192.800,330.800 191.869,330.800 190.557 C 330.800 188.736,330.912 188.357,331.395 188.543 C 331.739 188.675,331.950 188.566,331.895 188.286 C 331.843 188.019,331.986 187.832,332.213 187.871 C 332.471 187.916,332.668 186.301,332.736 183.571 C 332.811 180.557,332.707 179.200,332.399 179.200 C 332.154 179.200,332.056 179.032,332.183 178.828 C 332.309 178.623,332.227 178.340,332.000 178.200 C 331.773 178.060,331.714 177.732,331.870 177.472 C 332.032 177.203,331.862 177.236,331.477 177.549 C 330.866 178.044,330.436 175.472,330.739 173.141 C 330.757 172.999,330.421 172.974,329.991 173.086 C 329.101 173.319,328.797 172.774,328.682 170.737 C 328.624 169.706,328.414 169.341,327.857 169.299 C 326.946 169.231,326.911 169.197,326.738 168.213 C 326.555 167.168,322.110 163.200,321.123 163.200 C 320.696 163.200,319.757 162.750,319.036 162.200 C 318.314 161.650,317.359 161.200,316.911 161.200 C 316.464 161.200,315.865 160.919,315.580 160.575 C 315.286 160.222,314.527 159.979,313.831 160.016 C 313.154 160.052,312.465 160.040,312.300 159.991 C 312.135 159.941,311.835 159.878,311.633 159.850 C 311.432 159.822,311.177 159.710,311.068 159.600 C 310.959 159.490,307.479 159.513,303.335 159.652 C 299.191 159.791,276.675 159.926,253.300 159.952 L 210.800 160.000 210.800 156.157 C 210.800 152.919,210.894 152.350,211.395 152.543 C 211.739 152.675,211.950 152.566,211.895 152.286 C 211.843 152.019,212.004 151.838,212.253 151.884 C 212.502 151.931,212.699 151.751,212.690 151.484 C 212.578 148.083,212.881 142.003,213.155 142.172 C 213.595 142.444,214.492 141.425,214.130 141.063 C 213.985 140.918,214.070 140.800,214.319 140.800 C 214.619 140.800,214.810 139.418,214.886 136.700 C 214.974 133.553,215.123 132.626,215.530 132.710 C 215.821 132.770,215.944 132.632,215.802 132.403 C 215.661 132.174,215.377 132.091,215.172 132.217 C 214.968 132.344,214.800 132.163,214.800 131.815 C 214.800 131.467,215.230 130.987,215.755 130.748 C 216.651 130.339,216.713 130.093,216.767 126.698 C 216.828 122.892,216.981 122.218,217.689 122.655 C 217.951 122.817,218.008 122.737,217.834 122.455 C 217.675 122.198,217.377 122.091,217.172 122.217 C 216.968 122.344,216.800 122.163,216.800 121.815 C 216.800 121.467,217.230 120.987,217.755 120.748 C 218.651 120.339,218.713 120.093,218.767 116.698 C 218.828 112.892,218.981 112.218,219.689 112.655 C 219.951 112.817,220.008 112.737,219.834 112.455 C 219.675 112.198,219.377 112.091,219.172 112.217 C 218.968 112.344,218.800 112.163,218.800 111.815 C 218.800 111.467,219.256 110.975,219.813 110.721 C 220.371 110.467,220.800 109.976,220.767 109.630 C 220.450 106.257,220.859 100.337,221.395 100.543 C 221.739 100.675,221.950 100.566,221.895 100.286 C 221.843 100.019,222.004 99.838,222.253 99.884 C 222.502 99.931,222.699 99.751,222.690 99.484 C 222.528 94.573,222.862 90.338,223.395 90.543 C 223.739 90.675,223.950 90.566,223.895 90.286 C 223.843 90.019,224.004 89.838,224.253 89.884 C 224.502 89.931,224.699 89.751,224.690 89.484 C 224.528 84.573,224.862 80.338,225.395 80.543 C 225.739 80.675,225.950 80.566,225.895 80.286 C 225.843 80.019,226.004 79.838,226.253 79.884 C 226.502 79.931,226.699 79.751,226.690 79.484 C 226.578 76.083,226.881 70.003,227.155 70.172 C 227.595 70.444,228.492 69.425,228.130 69.063 C 227.985 68.918,228.070 68.800,228.319 68.800 C 228.619 68.800,228.810 67.418,228.886 64.700 C 228.974 61.553,229.123 60.626,229.530 60.710 C 229.821 60.770,229.944 60.632,229.802 60.403 C 229.661 60.174,229.377 60.091,229.172 60.217 C 228.968 60.344,228.800 60.163,228.800 59.815 C 228.800 59.467,229.230 58.987,229.755 58.748 C 230.651 58.339,230.713 58.093,230.767 54.698 C 230.828 50.892,230.981 50.218,231.689 50.655 C 231.951 50.817,232.008 50.737,231.834 50.455 C 231.675 50.198,231.377 50.091,231.172 50.217 C 230.968 50.344,230.800 50.163,230.800 49.815 C 230.800 49.467,231.256 48.975,231.813 48.721 C 232.371 48.467,232.800 47.976,232.767 47.630 C 232.564 45.470,232.860 38.390,233.147 38.567 C 234.400 39.341,234.787 37.364,234.693 30.661 C 234.601 24.038,234.312 22.713,233.119 23.450 C 232.944 23.558,232.800 23.037,232.800 22.292 C 232.800 21.144,232.663 20.941,231.900 20.968 C 231.259 20.991,230.963 20.741,230.872 20.100 C 230.780 19.449,230.476 19.200,229.772 19.200 C 229.002 19.200,228.800 18.992,228.800 18.200 C 228.800 17.196,228.115 16.954,225.903 17.179 C 225.496 17.220,225.006 16.812,224.727 16.200 C 224.027 14.664,215.759 14.729,215.171 16.275 M186.438 260.555 C 186.110 260.949,186.093 261.211,186.383 261.390 C 186.616 261.533,186.917 261.362,187.052 261.008 C 187.390 260.128,187.019 259.854,186.438 260.555 M184.480 272.480 C 183.776 273.184,183.865 275.200,184.600 275.200 C 185.033 275.200,185.200 274.756,185.200 273.600 C 185.200 271.834,185.171 271.789,184.480 272.480 M182.480 282.480 C 181.776 283.184,181.865 285.200,182.600 285.200 C 183.033 285.200,183.200 284.756,183.200 283.600 C 183.200 281.834,183.171 281.789,182.480 282.480 M180.480 292.480 C 179.776 293.184,179.865 295.200,180.600 295.200 C 181.033 295.200,181.200 294.756,181.200 293.600 C 181.200 291.834,181.171 291.789,180.480 292.480 M178.500 302.457 C 177.751 303.211,177.835 307.200,178.600 307.200 C 179.033 307.200,179.200 306.756,179.200 305.600 C 179.200 304.590,179.384 303.998,179.700 303.994 C 180.058 303.989,180.071 303.904,179.746 303.694 C 179.497 303.532,179.227 303.074,179.146 302.677 C 179.029 302.096,178.901 302.052,178.500 302.457 M176.662 312.331 C 176.226 312.814,176.000 313.768,176.000 315.131 C 176.000 316.516,175.835 317.202,175.500 317.206 C 175.190 317.210,175.152 317.324,175.400 317.506 C 175.620 317.668,175.800 318.070,175.800 318.400 C 175.800 318.730,175.620 319.135,175.400 319.300 C 175.144 319.492,175.183 319.718,175.510 319.930 C 175.901 320.183,175.785 320.606,175.010 321.747 C 174.266 322.843,174.000 323.758,174.000 325.218 C 174.000 326.534,173.832 327.202,173.500 327.206 C 173.190 327.210,173.152 327.324,173.400 327.506 C 173.868 327.850,174.045 329.200,173.622 329.200 C 173.463 329.200,173.333 329.738,173.333 330.395 C 173.333 331.052,173.033 331.921,172.667 332.326 C 172.228 332.811,172.000 333.760,172.000 335.098 C 172.000 336.352,171.808 337.211,171.500 337.335 C 171.115 337.490,171.121 337.544,171.524 337.568 C 171.812 337.586,171.928 337.793,171.782 338.030 C 171.635 338.266,171.429 339.661,171.322 341.130 C 171.210 342.686,170.880 344.079,170.531 344.468 C 170.190 344.850,169.989 345.672,170.064 346.385 C 170.136 347.071,170.016 347.760,169.797 347.916 C 169.579 348.072,169.338 349.460,169.263 351.000 C 169.177 352.745,168.901 354.052,168.529 354.468 C 168.190 354.849,167.989 355.674,168.064 356.385 C 168.136 357.071,168.016 357.760,167.797 357.916 C 167.579 358.072,167.338 359.460,167.263 361.000 C 167.181 362.662,166.897 364.057,166.563 364.431 C 165.771 365.320,165.770 372.678,166.561 373.569 C 166.870 373.916,167.185 375.010,167.261 376.000 C 167.377 377.498,167.586 377.893,168.505 378.353 C 169.134 378.667,169.565 379.181,169.505 379.544 C 169.447 379.895,169.580 380.195,169.800 380.211 C 171.279 380.317,172.029 380.883,171.521 381.510 C 171.230 381.870,171.201 382.033,171.455 381.881 C 171.705 381.731,172.132 381.877,172.404 382.204 C 172.691 382.550,173.569 382.800,174.498 382.800 C 175.950 382.800,176.047 382.862,175.549 383.477 C 175.247 383.849,175.205 384.031,175.455 383.881 C 175.705 383.731,176.140 383.886,176.421 384.226 C 177.639 385.692,187.320 384.613,186.513 383.100 C 186.425 382.935,187.002 382.800,187.795 382.800 C 188.829 382.800,189.507 382.510,190.186 381.778 C 190.707 381.215,191.496 380.728,191.939 380.695 C 192.382 380.661,192.736 380.536,192.725 380.417 C 192.604 379.088,192.871 378.342,193.395 378.543 C 193.739 378.675,193.950 378.566,193.895 378.286 C 193.843 378.019,194.038 377.849,194.330 377.910 C 194.621 377.970,194.746 377.837,194.608 377.613 C 194.470 377.389,194.541 376.890,194.766 376.503 C 194.991 376.116,195.181 375.957,195.188 376.149 C 195.195 376.341,195.468 376.276,195.796 376.004 C 196.123 375.732,196.293 375.350,196.172 375.155 C 196.051 374.960,196.143 374.800,196.376 374.800 C 196.609 374.800,196.800 374.350,196.800 373.800 C 196.800 373.000,197.000 372.800,197.800 372.800 C 198.679 372.800,198.800 372.628,198.800 371.376 C 198.800 370.593,198.960 370.051,199.155 370.172 C 199.517 370.396,200.521 369.460,200.237 369.163 C 200.151 369.073,200.333 368.768,200.640 368.484 C 200.948 368.201,201.200 368.088,201.200 368.233 C 201.200 368.379,201.468 368.276,201.796 368.004 C 202.123 367.732,202.293 367.350,202.172 367.155 C 202.051 366.960,202.143 366.800,202.376 366.800 C 202.609 366.800,202.800 366.350,202.800 365.800 C 202.800 365.250,202.993 364.800,203.229 364.800 C 203.942 364.800,204.800 363.710,204.800 362.805 C 204.800 362.336,204.935 362.035,205.100 362.134 C 205.491 362.371,206.426 361.360,206.109 361.043 C 205.976 360.909,206.136 360.800,206.465 360.800 C 206.828 360.800,207.051 360.446,207.032 359.900 C 207.008 359.215,207.215 359.008,207.900 359.032 C 208.624 359.057,208.800 358.847,208.800 357.960 C 208.800 357.119,209.015 356.825,209.700 356.728 C 210.468 356.619,210.618 356.321,210.722 354.700 C 210.831 353.000,210.944 352.800,211.795 352.800 C 212.536 352.800,212.775 352.556,212.873 351.700 C 212.964 350.909,213.225 350.600,213.799 350.599 C 214.325 350.599,214.599 350.332,214.599 349.819 C 214.600 349.316,214.956 348.955,215.600 348.803 C 216.467 348.599,216.616 348.318,216.722 346.684 C 216.833 344.972,216.935 344.800,217.847 344.800 C 218.580 344.800,218.819 344.611,218.735 344.100 C 218.672 343.715,218.778 343.147,218.972 342.838 C 219.225 342.433,219.180 342.365,218.810 342.594 C 218.467 342.806,218.358 342.726,218.481 342.356 C 218.583 342.050,218.922 341.792,219.233 341.782 C 219.545 341.772,219.748 341.525,219.684 341.233 C 219.612 340.904,219.797 340.790,220.171 340.933 C 220.503 341.061,220.881 340.993,221.011 340.783 C 221.141 340.572,220.967 340.400,220.624 340.400 C 220.281 340.400,220.014 340.085,220.032 339.700 C 220.050 339.282,220.144 339.201,220.265 339.500 C 220.376 339.775,220.632 340.000,220.833 340.000 C 221.035 340.000,221.155 339.775,221.100 339.500 C 221.045 339.225,221.180 339.029,221.400 339.064 C 221.620 339.099,221.837 338.334,221.881 337.364 C 221.926 336.387,221.782 335.600,221.558 335.600 C 221.335 335.600,221.288 335.825,221.453 336.100 C 221.645 336.419,221.501 336.395,221.054 336.032 C 220.526 335.604,220.385 335.591,220.477 335.979 C 220.558 336.319,220.021 336.553,218.900 336.667 C 217.299 336.831,217.200 336.781,217.200 335.820 C 217.200 334.863,217.077 334.800,215.200 334.800 C 213.333 334.800,213.200 334.733,213.200 333.800 C 213.200 333.000,213.000 332.800,212.200 332.800 C 211.400 332.800,211.200 332.600,211.200 331.800 C 211.200 330.867,211.067 330.800,209.200 330.800 C 207.333 330.800,207.200 330.733,207.200 329.800 C 207.200 328.867,207.067 328.800,205.200 328.800 C 203.333 328.800,203.200 328.733,203.200 327.800 C 203.200 327.000,203.000 326.800,202.200 326.800 C 201.400 326.800,201.200 326.600,201.200 325.800 C 201.200 324.822,201.133 324.800,198.200 324.800 C 195.267 324.800,195.200 324.778,195.200 323.800 C 195.200 323.000,195.000 322.800,194.200 322.800 C 193.400 322.800,193.200 322.600,193.200 321.800 C 193.200 320.867,193.067 320.800,191.200 320.800 C 189.333 320.800,189.200 320.733,189.200 319.800 C 189.200 318.867,189.067 318.800,187.200 318.800 C 185.333 318.800,185.200 318.733,185.200 317.800 C 185.200 316.867,185.067 316.800,183.200 316.800 C 181.394 316.800,181.199 316.713,181.194 315.900 C 181.183 314.287,180.754 314.022,179.086 314.595 C 177.770 315.047,177.635 315.039,178.054 314.535 C 178.438 314.073,178.420 313.980,177.968 314.077 C 177.602 314.156,177.353 313.793,177.269 313.057 C 177.175 312.233,177.276 312.000,177.631 312.219 C 177.947 312.415,178.021 312.358,177.838 312.062 C 177.468 311.463,177.442 311.469,176.662 312.331 M180.800 315.287 C 180.800 315.459,180.530 315.600,180.200 315.600 C 179.870 315.600,179.597 315.825,179.594 316.100 C 179.590 316.433,179.458 316.400,179.200 316.000 C 178.589 315.054,178.725 314.803,179.800 314.892 C 180.350 314.937,180.800 315.115,180.800 315.287 " stroke="none" fill="#3ccc8c" fill-rule="evenodd"></path><path id="path3" d="M214.128 15.783 C 214.167 16.012,214.005 16.165,213.767 16.122 C 213.528 16.079,213.333 16.313,213.333 16.641 C 213.333 17.554,214.861 17.141,215.234 16.127 C 215.494 15.418,215.413 15.264,214.805 15.310 C 214.393 15.341,214.088 15.554,214.128 15.783 M224.670 15.463 C 224.283 15.851,225.172 17.200,225.814 17.200 C 226.136 17.200,226.400 17.031,226.400 16.824 C 226.400 16.319,225.712 15.917,225.500 16.298 C 225.407 16.464,225.384 16.381,225.448 16.113 C 225.582 15.557,225.034 15.100,224.670 15.463 M230.800 19.989 C 230.800 20.449,231.078 20.932,231.417 21.062 C 232.182 21.355,232.577 21.009,232.190 20.384 C 231.975 20.035,231.800 20.054,231.512 20.457 C 231.215 20.874,231.176 20.840,231.345 20.313 C 231.466 19.935,231.393 19.519,231.183 19.389 C 230.972 19.259,230.800 19.529,230.800 19.989 M204.600 25.278 C 203.309 26.010,202.731 27.200,203.667 27.200 C 203.923 27.200,204.024 27.091,203.891 26.957 C 203.595 26.662,204.496 25.621,204.858 25.840 C 205.000 25.925,205.219 25.726,205.346 25.398 C 205.616 24.694,205.627 24.696,204.600 25.278 M199.297 32.175 C 199.263 32.622,199.044 33.052,198.811 33.130 C 197.642 33.519,196.713 35.200,197.667 35.200 C 197.923 35.200,198.024 35.091,197.891 34.957 C 197.574 34.640,198.509 33.629,198.900 33.866 C 199.065 33.965,199.200 33.848,199.200 33.605 C 199.200 33.362,199.639 32.725,200.175 32.188 L 201.151 31.213 200.254 31.287 C 199.668 31.336,199.337 31.643,199.297 32.175 M194.160 39.506 C 193.918 39.668,193.504 40.210,193.240 40.711 C 192.976 41.212,192.584 41.514,192.370 41.381 C 192.156 41.249,192.030 41.379,192.090 41.670 C 192.151 41.962,192.012 42.167,191.783 42.128 C 191.554 42.088,191.341 42.393,191.310 42.805 C 191.227 43.900,192.959 43.187,193.128 42.056 C 193.198 41.585,193.434 41.200,193.651 41.200 C 193.869 41.200,193.965 41.065,193.866 40.900 C 193.629 40.509,194.640 39.574,194.957 39.891 C 195.091 40.024,195.200 39.923,195.200 39.667 C 195.200 39.136,194.805 39.075,194.160 39.506 M188.160 47.506 C 187.918 47.668,187.504 48.210,187.240 48.711 C 186.976 49.212,186.584 49.514,186.370 49.381 C 186.156 49.249,186.030 49.379,186.090 49.670 C 186.151 49.962,186.005 50.165,185.767 50.122 C 185.528 50.079,185.333 50.313,185.333 50.641 C 185.333 51.629,186.981 51.132,187.128 50.100 C 187.198 49.605,187.434 49.200,187.651 49.200 C 187.869 49.200,187.965 49.065,187.866 48.900 C 187.629 48.509,188.640 47.574,188.957 47.891 C 189.091 48.024,189.200 47.923,189.200 47.667 C 189.200 47.136,188.805 47.075,188.160 47.506 M231.497 48.850 C 230.660 49.318,230.547 50.472,231.369 50.157 C 231.897 49.954,232.562 48.829,232.306 48.573 C 232.244 48.511,231.880 48.635,231.497 48.850 M181.829 55.829 C 181.105 56.552,181.008 57.200,181.624 57.200 C 181.857 57.200,181.965 57.065,181.866 56.900 C 181.629 56.509,182.640 55.574,182.957 55.891 C 183.091 56.024,183.200 55.923,183.200 55.667 C 183.200 55.012,182.571 55.086,181.829 55.829 M229.497 58.850 C 228.660 59.318,228.547 60.472,229.369 60.157 C 229.897 59.954,230.562 58.829,230.306 58.573 C 230.244 58.511,229.880 58.635,229.497 58.850 M175.829 63.829 C 175.105 64.552,175.008 65.200,175.624 65.200 C 175.857 65.200,175.965 65.065,175.866 64.900 C 175.629 64.509,176.640 63.574,176.957 63.891 C 177.091 64.024,177.200 63.923,177.200 63.667 C 177.200 63.012,176.571 63.086,175.829 63.829 M228.172 69.155 C 228.444 69.595,227.425 70.492,227.063 70.130 C 226.918 69.985,226.800 70.077,226.800 70.333 C 226.800 71.018,227.383 70.903,228.138 70.069 C 228.901 69.225,228.981 68.800,228.376 68.800 C 228.143 68.800,228.051 68.960,228.172 69.155 M169.829 71.829 C 169.105 72.552,169.008 73.200,169.624 73.200 C 169.857 73.200,169.965 73.065,169.866 72.900 C 169.629 72.509,170.640 71.574,170.957 71.891 C 171.091 72.024,171.200 71.923,171.200 71.667 C 171.200 71.012,170.571 71.086,169.829 71.829 M165.297 78.175 C 165.263 78.622,165.044 79.052,164.811 79.130 C 163.642 79.519,162.713 81.200,163.667 81.200 C 163.923 81.200,164.024 81.091,163.891 80.957 C 163.574 80.640,164.509 79.629,164.900 79.866 C 165.065 79.965,165.200 79.848,165.200 79.605 C 165.200 79.362,165.639 78.725,166.175 78.188 L 167.151 77.213 166.254 77.287 C 165.668 77.336,165.337 77.643,165.297 78.175 M225.714 79.842 C 225.227 80.369,224.989 80.800,225.186 80.800 C 225.656 80.800,226.800 79.645,226.800 79.171 C 226.800 78.688,226.758 78.713,225.714 79.842 M159.916 85.819 C 159.412 86.424,158.978 86.853,157.786 87.929 C 157.082 88.563,157.022 89.200,157.667 89.200 C 157.923 89.200,158.024 89.091,157.891 88.957 C 157.626 88.692,158.475 87.611,158.800 87.800 C 158.910 87.864,159.232 87.665,159.516 87.358 C 159.799 87.051,159.927 86.800,159.800 86.800 C 159.673 86.800,159.801 86.549,160.084 86.242 C 160.368 85.935,160.735 85.766,160.900 85.866 C 161.065 85.965,161.200 85.857,161.200 85.624 C 161.200 85.002,160.509 85.107,159.916 85.819 M223.714 89.842 C 223.227 90.369,222.989 90.800,223.186 90.800 C 223.656 90.800,224.800 89.645,224.800 89.171 C 224.800 88.688,224.758 88.713,223.714 89.842 M154.160 93.506 C 153.918 93.668,153.504 94.210,153.240 94.711 C 152.976 95.212,152.584 95.514,152.370 95.381 C 152.156 95.249,152.030 95.379,152.090 95.670 C 152.151 95.962,152.005 96.165,151.767 96.122 C 151.528 96.079,151.333 96.313,151.333 96.641 C 151.333 97.629,152.981 97.132,153.128 96.100 C 153.198 95.605,153.434 95.200,153.651 95.200 C 153.869 95.200,153.965 95.065,153.866 94.900 C 153.629 94.509,154.640 93.574,154.957 93.891 C 155.091 94.024,155.200 93.923,155.200 93.667 C 155.200 93.136,154.805 93.075,154.160 93.506 M221.714 99.842 C 221.227 100.369,220.989 100.800,221.186 100.800 C 221.656 100.800,222.800 99.645,222.800 99.171 C 222.800 98.688,222.758 98.713,221.714 99.842 M147.829 101.829 C 147.105 102.552,147.008 103.200,147.624 103.200 C 147.857 103.200,147.965 103.065,147.866 102.900 C 147.629 102.509,148.640 101.574,148.957 101.891 C 149.091 102.024,149.200 101.923,149.200 101.667 C 149.200 101.012,148.571 101.086,147.829 101.829 M141.829 109.829 C 141.105 110.552,141.008 111.200,141.624 111.200 C 141.857 111.200,141.965 111.065,141.866 110.900 C 141.629 110.509,142.640 109.574,142.957 109.891 C 143.091 110.024,143.200 109.923,143.200 109.667 C 143.200 109.012,142.571 109.086,141.829 109.829 M219.497 110.850 C 218.660 111.318,218.547 112.472,219.369 112.157 C 219.897 111.954,220.562 110.829,220.306 110.573 C 220.244 110.511,219.880 110.635,219.497 110.850 M135.829 117.829 C 135.105 118.552,135.008 119.200,135.624 119.200 C 135.857 119.200,135.965 119.065,135.866 118.900 C 135.629 118.509,136.640 117.574,136.957 117.891 C 137.091 118.024,137.200 117.923,137.200 117.667 C 137.200 117.012,136.571 117.086,135.829 117.829 M217.497 120.850 C 216.660 121.318,216.547 122.472,217.369 122.157 C 217.897 121.954,218.562 120.829,218.306 120.573 C 218.244 120.511,217.880 120.635,217.497 120.850 M130.600 125.278 C 129.309 126.010,128.731 127.200,129.667 127.200 C 129.923 127.200,130.024 127.091,129.891 126.957 C 129.595 126.662,130.496 125.621,130.858 125.840 C 131.000 125.925,131.219 125.726,131.346 125.398 C 131.616 124.694,131.627 124.696,130.600 125.278 M215.497 130.850 C 214.660 131.318,214.547 132.472,215.369 132.157 C 215.897 131.954,216.562 130.829,216.306 130.573 C 216.244 130.511,215.880 130.635,215.497 130.850 M125.916 131.819 C 125.412 132.424,124.978 132.853,123.786 133.929 C 123.082 134.563,123.022 135.200,123.667 135.200 C 123.923 135.200,124.024 135.091,123.891 134.957 C 123.626 134.692,124.475 133.611,124.800 133.800 C 124.910 133.864,125.232 133.665,125.516 133.358 C 125.799 133.051,125.927 132.800,125.800 132.800 C 125.673 132.800,125.801 132.549,126.084 132.242 C 126.368 131.935,126.735 131.766,126.900 131.866 C 127.065 131.965,127.200 131.857,127.200 131.624 C 127.200 131.002,126.509 131.107,125.916 131.819 M120.160 139.506 C 119.918 139.668,119.504 140.210,119.240 140.711 C 118.976 141.212,118.584 141.514,118.370 141.381 C 118.156 141.249,118.030 141.379,118.090 141.670 C 118.151 141.962,118.012 142.167,117.783 142.128 C 117.554 142.088,117.341 142.393,117.310 142.805 C 117.227 143.900,118.959 143.187,119.128 142.056 C 119.198 141.585,119.434 141.200,119.651 141.200 C 119.869 141.200,119.965 141.065,119.866 140.900 C 119.629 140.509,120.640 139.574,120.957 139.891 C 121.091 140.024,121.200 139.923,121.200 139.667 C 121.200 139.136,120.805 139.075,120.160 139.506 M214.172 141.155 C 214.444 141.595,213.425 142.492,213.063 142.130 C 212.918 141.985,212.800 142.077,212.800 142.333 C 212.800 143.018,213.383 142.903,214.138 142.069 C 214.901 141.225,214.981 140.800,214.376 140.800 C 214.143 140.800,214.051 140.960,214.172 141.155 M113.829 147.829 C 113.105 148.552,113.008 149.200,113.624 149.200 C 113.857 149.200,113.965 149.065,113.866 148.900 C 113.629 148.509,114.640 147.574,114.957 147.891 C 115.091 148.024,115.200 147.923,115.200 147.667 C 115.200 147.012,114.571 147.086,113.829 147.829 M211.714 151.842 C 211.227 152.369,210.989 152.800,211.186 152.800 C 211.656 152.800,212.800 151.645,212.800 151.171 C 212.800 150.688,212.758 150.713,211.714 151.842 M107.829 155.829 C 107.105 156.552,107.008 157.200,107.624 157.200 C 107.857 157.200,107.965 157.065,107.866 156.900 C 107.629 156.509,108.640 155.574,108.957 155.891 C 109.091 156.024,109.200 155.923,109.200 155.667 C 109.200 155.012,108.571 155.086,107.829 155.829 M210.800 159.600 C 210.800 160.058,291.040 160.076,303.200 159.621 C 307.270 159.469,288.145 159.312,260.700 159.272 C 227.652 159.224,210.800 159.335,210.800 159.600 M101.829 163.829 C 101.105 164.552,101.008 165.200,101.624 165.200 C 101.857 165.200,101.965 165.065,101.866 164.900 C 101.629 164.509,102.640 163.574,102.957 163.891 C 103.091 164.024,103.200 163.923,103.200 163.667 C 103.200 163.012,102.571 163.086,101.829 163.829 M96.600 171.278 C 95.309 172.010,94.731 173.200,95.667 173.200 C 95.923 173.200,96.024 173.091,95.891 172.957 C 95.595 172.662,96.496 171.621,96.858 171.840 C 97.000 171.925,97.219 171.726,97.346 171.398 C 97.616 170.694,97.627 170.696,96.600 171.278 M328.866 172.012 C 328.940 172.508,329.409 173.063,329.909 173.247 C 330.741 173.552,330.779 173.509,330.366 172.736 C 329.998 172.049,329.841 171.995,329.519 172.446 C 329.210 172.880,329.172 172.851,329.345 172.313 C 329.466 171.935,329.378 171.510,329.149 171.368 C 328.896 171.212,328.785 171.464,328.866 172.012 M91.297 178.175 C 91.263 178.622,91.044 179.052,90.811 179.130 C 89.642 179.519,88.713 181.200,89.667 181.200 C 89.923 181.200,90.024 181.091,89.891 180.957 C 89.574 180.640,90.509 179.629,90.900 179.866 C 91.065 179.965,91.200 179.848,91.200 179.605 C 91.200 179.362,91.639 178.725,92.175 178.188 L 93.151 177.213 92.254 177.287 C 91.668 177.336,91.337 177.643,91.297 178.175 M330.800 177.709 C 330.800 177.942,330.918 178.015,331.063 177.870 C 331.208 177.725,331.547 177.790,331.816 178.014 C 332.157 178.296,332.366 178.265,332.502 177.910 C 332.624 177.593,332.339 177.378,331.749 177.342 C 331.227 177.311,330.800 177.476,330.800 177.709 M86.160 185.506 C 85.918 185.668,85.504 186.210,85.240 186.711 C 84.976 187.212,84.584 187.514,84.370 187.381 C 84.156 187.249,84.030 187.379,84.090 187.670 C 84.151 187.962,84.012 188.167,83.783 188.128 C 83.554 188.088,83.341 188.393,83.310 188.805 C 83.227 189.900,84.959 189.187,85.128 188.056 C 85.198 187.585,85.434 187.200,85.651 187.200 C 85.869 187.200,85.965 187.065,85.866 186.900 C 85.629 186.509,86.640 185.574,86.957 185.891 C 87.091 186.024,87.200 185.923,87.200 185.667 C 87.200 185.136,86.805 185.075,86.160 185.506 M331.714 187.842 C 331.227 188.369,330.989 188.800,331.186 188.800 C 331.656 188.800,332.800 187.645,332.800 187.171 C 332.800 186.688,332.758 186.713,331.714 187.842 M330.172 193.155 C 330.444 193.595,329.425 194.492,329.063 194.130 C 328.918 193.985,328.800 194.077,328.800 194.333 C 328.800 195.018,329.383 194.903,330.138 194.069 C 330.901 193.225,330.981 192.800,330.376 192.800 C 330.143 192.800,330.051 192.960,330.172 193.155 M80.160 193.506 C 79.918 193.668,79.504 194.210,79.240 194.711 C 78.976 195.212,78.584 195.514,78.370 195.381 C 78.156 195.249,78.030 195.379,78.090 195.670 C 78.151 195.962,78.005 196.165,77.767 196.122 C 77.528 196.079,77.333 196.313,77.333 196.641 C 77.333 197.629,78.981 197.132,79.128 196.100 C 79.198 195.605,79.434 195.200,79.651 195.200 C 79.869 195.200,79.965 195.065,79.866 194.900 C 79.629 194.509,80.640 193.574,80.957 193.891 C 81.091 194.024,81.200 193.923,81.200 193.667 C 81.200 193.136,80.805 193.075,80.160 193.506 M326.172 199.155 C 326.444 199.595,325.425 200.492,325.063 200.130 C 324.918 199.985,324.800 200.077,324.800 200.333 C 324.800 201.018,325.383 200.903,326.138 200.069 C 326.901 199.225,326.981 198.800,326.376 198.800 C 326.143 198.800,326.051 198.960,326.172 199.155 M73.829 201.829 C 73.105 202.552,73.008 203.200,73.624 203.200 C 73.857 203.200,73.965 203.065,73.866 202.900 C 73.629 202.509,74.640 201.574,74.957 201.891 C 75.091 202.024,75.200 201.923,75.200 201.667 C 75.200 201.012,74.571 201.086,73.829 201.829 M320.172 207.155 C 320.444 207.595,319.425 208.492,319.063 208.130 C 318.918 207.985,318.800 208.077,318.800 208.333 C 318.800 209.018,319.383 208.903,320.138 208.069 C 320.901 207.225,320.981 206.800,320.376 206.800 C 320.143 206.800,320.051 206.960,320.172 207.155 M69.829 207.829 C 69.105 208.552,69.008 209.200,69.624 209.200 C 69.857 209.200,69.965 209.065,69.866 208.900 C 69.629 208.509,70.640 207.574,70.957 207.891 C 71.091 208.024,71.200 207.923,71.200 207.667 C 71.200 207.012,70.571 207.086,69.829 207.829 M315.067 213.067 C 314.570 213.563,314.796 214.376,315.369 214.157 C 316.131 213.864,316.511 212.800,315.854 212.800 C 315.568 212.800,315.213 212.920,315.067 213.067 M67.291 214.381 C 67.231 215.241,67.283 215.293,67.623 214.713 C 67.844 214.335,68.335 213.844,68.713 213.623 C 69.293 213.283,69.241 213.231,68.381 213.291 C 67.594 213.345,67.345 213.594,67.291 214.381 M314.172 215.155 C 314.444 215.595,313.425 216.492,313.063 216.130 C 312.918 215.985,312.800 216.077,312.800 216.333 C 312.800 217.018,313.383 216.903,314.138 216.069 C 314.901 215.225,314.981 214.800,314.376 214.800 C 314.143 214.800,314.051 214.960,314.172 215.155 M309.067 221.067 C 308.920 221.213,308.800 221.568,308.800 221.854 C 308.800 222.511,309.864 222.131,310.157 221.369 C 310.376 220.796,309.563 220.570,309.067 221.067 M67.342 223.749 C 67.378 224.339,67.593 224.624,67.910 224.502 C 68.265 224.366,68.296 224.157,68.014 223.816 C 67.790 223.547,67.725 223.208,67.870 223.063 C 68.015 222.918,67.942 222.800,67.709 222.800 C 67.476 222.800,67.311 223.227,67.342 223.749 M308.172 223.155 C 308.444 223.595,307.425 224.492,307.063 224.130 C 306.918 223.985,306.800 224.077,306.800 224.333 C 306.800 225.018,307.383 224.903,308.138 224.069 C 308.901 223.225,308.981 222.800,308.376 222.800 C 308.143 222.800,308.051 222.960,308.172 223.155 M69.342 229.749 C 69.378 230.339,69.593 230.624,69.910 230.502 C 70.265 230.366,70.296 230.157,70.014 229.816 C 69.790 229.547,69.725 229.208,69.870 229.063 C 70.015 228.918,69.942 228.800,69.709 228.800 C 69.476 228.800,69.311 229.227,69.342 229.749 M304.134 229.068 C 304.281 229.215,304.086 229.710,303.701 230.168 C 303.001 230.999,303.001 230.999,303.900 230.238 C 304.883 229.406,305.065 228.800,304.333 228.800 C 304.077 228.800,303.987 228.920,304.134 229.068 M301.887 231.832 C 301.350 232.549,301.318 232.730,301.756 232.561 C 302.076 232.439,302.446 232.056,302.578 231.712 C 302.952 230.737,302.669 230.786,301.887 231.832 M73.368 235.149 C 73.510 235.378,73.935 235.466,74.313 235.345 C 74.851 235.172,74.880 235.210,74.446 235.519 C 73.995 235.841,74.049 235.998,74.736 236.366 C 75.509 236.779,75.552 236.741,75.247 235.909 C 75.063 235.409,74.508 234.940,74.012 234.866 C 73.464 234.785,73.212 234.896,73.368 235.149 M298.400 236.800 C 298.070 237.013,297.963 237.191,298.162 237.194 C 298.361 237.197,298.181 237.605,297.762 238.100 C 297.001 238.999,297.001 238.999,297.832 238.299 C 298.290 237.914,298.776 237.709,298.911 237.844 C 299.046 237.980,299.128 237.710,299.093 237.245 C 299.058 236.780,299.023 236.403,299.015 236.406 C 299.007 236.409,298.730 236.587,298.400 236.800 M79.342 239.749 C 79.378 240.339,79.593 240.624,79.910 240.502 C 80.265 240.366,80.296 240.157,80.014 239.816 C 79.790 239.547,79.725 239.208,79.870 239.063 C 80.015 238.918,79.942 238.800,79.709 238.800 C 79.476 238.800,79.311 239.227,79.342 239.749 M210.200 239.592 C 200.520 239.706,192.285 239.954,191.900 240.143 C 190.589 240.785,191.194 241.108,192.700 240.570 C 194.482 239.935,291.045 239.751,293.749 240.378 C 294.914 240.649,295.184 240.624,294.839 240.279 C 293.801 239.241,261.826 238.981,210.200 239.592 M295.784 240.027 C 295.417 240.620,295.762 240.866,296.540 240.568 C 296.901 240.429,297.096 240.155,296.974 239.958 C 296.675 239.474,296.105 239.506,295.784 240.027 M87.561 240.800 C 87.526 240.910,87.456 241.400,87.404 241.888 L 87.310 242.776 138.228 242.794 C 172.246 242.806,189.229 242.677,189.396 242.406 C 189.566 242.132,173.160 242.000,139.043 242.000 C 91.271 242.000,88.417 241.961,88.032 241.300 C 87.808 240.915,87.596 240.690,87.561 240.800 M190.000 243.813 C 190.000 244.779,190.182 245.200,190.600 245.200 C 190.995 245.200,191.200 244.805,191.200 244.043 C 191.200 243.383,190.942 242.787,190.600 242.655 C 190.138 242.478,190.000 242.744,190.000 243.813 M188.480 250.480 C 187.746 251.214,187.847 255.200,188.600 255.200 C 189.072 255.200,189.200 254.644,189.200 252.600 C 189.200 249.788,189.193 249.767,188.480 250.480 M186.000 263.454 C 186.000 265.175,186.113 265.531,186.600 265.345 C 187.016 265.185,187.200 264.535,187.200 263.224 C 187.200 261.810,187.049 261.333,186.600 261.333 C 186.142 261.333,186.000 261.836,186.000 263.454 M183.316 284.732 C 183.485 285.429,183.398 285.608,182.971 285.444 C 182.657 285.324,182.400 285.421,182.400 285.662 C 182.400 285.949,182.196 285.928,181.800 285.600 C 181.310 285.194,181.200 285.217,181.200 285.725 C 181.200 286.155,181.483 286.296,182.114 286.181 C 182.807 286.056,183.029 286.202,183.029 286.786 C 183.029 287.368,182.903 287.452,182.514 287.129 C 181.878 286.601,181.828 287.268,182.458 287.898 C 182.801 288.241,182.701 288.299,182.058 288.131 C 181.380 287.954,181.200 288.085,181.200 288.753 C 181.200 289.219,181.425 289.603,181.700 289.606 C 182.033 289.610,182.000 289.742,181.600 290.000 C 181.090 290.330,181.087 290.389,181.580 290.394 C 182.031 290.399,182.053 290.507,181.680 290.880 C 181.416 291.144,181.200 292.147,181.200 293.109 C 181.200 294.966,180.577 295.972,179.596 295.697 C 179.268 295.606,179.540 295.912,180.200 296.378 L 181.400 297.225 180.300 297.039 C 179.104 296.837,178.760 297.426,179.900 297.724 C 180.545 297.893,180.546 297.911,179.915 297.954 C 179.087 298.010,178.925 303.177,179.736 303.692 C 180.078 303.910,180.068 303.989,179.700 303.994 C 179.394 303.998,179.200 304.556,179.200 305.429 C 179.200 306.214,178.943 307.114,178.629 307.429 C 177.942 308.115,177.439 308.185,177.838 307.538 C 177.998 307.279,177.949 307.184,177.727 307.321 C 177.137 307.686,177.112 311.210,177.695 311.930 C 178.106 312.438,178.102 312.494,177.669 312.234 C 177.268 311.993,177.171 312.194,177.269 313.057 C 177.353 313.793,177.602 314.156,177.968 314.077 C 178.420 313.980,178.438 314.073,178.054 314.535 C 177.635 315.039,177.770 315.047,179.086 314.595 C 180.754 314.022,181.183 314.287,181.194 315.900 C 181.199 316.713,181.394 316.800,183.200 316.800 C 185.067 316.800,185.200 316.867,185.200 317.800 C 185.200 318.733,185.333 318.800,187.200 318.800 C 189.067 318.800,189.200 318.867,189.200 319.800 C 189.200 320.733,189.333 320.800,191.200 320.800 C 193.067 320.800,193.200 320.867,193.200 321.800 C 193.200 322.600,193.400 322.800,194.200 322.800 C 195.000 322.800,195.200 323.000,195.200 323.800 C 195.200 324.778,195.267 324.800,198.200 324.800 C 201.133 324.800,201.200 324.822,201.200 325.800 C 201.200 326.600,201.400 326.800,202.200 326.800 C 203.000 326.800,203.200 327.000,203.200 327.800 C 203.200 328.733,203.333 328.800,205.200 328.800 C 207.067 328.800,207.200 328.867,207.200 329.800 C 207.200 330.733,207.333 330.800,209.200 330.800 C 211.067 330.800,211.200 330.867,211.200 331.800 C 211.200 332.600,211.400 332.800,212.200 332.800 C 213.000 332.800,213.200 333.000,213.200 333.800 C 213.200 334.733,213.333 334.800,215.200 334.800 C 217.077 334.800,217.200 334.863,217.200 335.820 C 217.200 336.781,217.299 336.831,218.900 336.667 C 220.021 336.553,220.558 336.319,220.477 335.979 C 220.385 335.591,220.526 335.604,221.054 336.032 C 221.501 336.395,221.645 336.419,221.453 336.100 C 221.288 335.825,221.335 335.600,221.558 335.600 C 221.782 335.600,221.926 336.387,221.881 337.364 C 221.837 338.334,221.620 339.099,221.400 339.064 C 221.180 339.029,221.045 339.225,221.100 339.500 C 221.155 339.775,221.035 340.000,220.833 340.000 C 220.632 340.000,220.376 339.775,220.265 339.500 C 220.137 339.184,220.052 339.242,220.032 339.657 C 219.998 340.357,221.736 341.011,222.453 340.567 C 222.682 340.426,222.781 339.970,222.672 339.555 C 222.564 339.140,222.649 338.800,222.861 338.800 C 223.073 338.800,223.149 338.640,223.028 338.445 C 222.907 338.250,223.122 338.115,223.504 338.145 C 223.938 338.179,224.179 337.938,224.145 337.504 C 224.115 337.122,224.250 336.907,224.445 337.028 C 224.640 337.149,224.800 336.697,224.800 336.024 C 224.800 335.351,224.980 334.778,225.200 334.750 C 225.420 334.723,225.825 334.678,226.100 334.650 C 226.375 334.623,226.623 334.375,226.650 334.100 C 226.678 333.825,226.722 333.327,226.750 332.992 C 226.787 332.540,227.071 332.453,227.858 332.650 C 228.842 332.897,228.897 332.842,228.650 331.858 C 228.486 331.204,228.549 330.800,228.816 330.800 C 229.053 330.800,229.149 330.640,229.028 330.445 C 228.907 330.250,229.122 330.115,229.504 330.145 C 229.938 330.179,230.179 329.938,230.145 329.504 C 230.115 329.122,230.262 328.915,230.472 329.044 C 230.682 329.174,230.820 329.037,230.779 328.740 C 230.579 327.282,230.833 326.800,231.800 326.800 C 232.734 326.800,233.073 326.019,232.863 324.347 C 232.846 324.208,233.139 324.118,233.516 324.147 C 233.937 324.180,234.179 323.933,234.145 323.504 C 234.115 323.122,234.262 322.915,234.472 323.044 C 234.682 323.174,234.820 323.037,234.779 322.740 C 234.593 321.382,234.843 320.800,235.613 320.800 C 236.059 320.800,236.523 320.485,236.642 320.100 C 236.761 319.715,237.027 319.085,237.233 318.700 C 237.438 318.315,237.490 318.000,237.347 318.000 C 237.205 318.000,236.844 318.315,236.546 318.700 C 236.125 319.244,236.134 319.077,236.586 317.951 C 236.906 317.154,237.065 316.398,236.939 316.272 C 236.813 316.146,237.090 316.072,237.555 316.107 C 238.208 316.156,238.344 316.355,238.155 316.985 C 237.953 317.656,238.005 317.710,238.445 317.290 C 238.888 316.867,238.890 316.636,238.453 315.936 C 238.016 315.236,238.018 315.035,238.463 314.753 C 238.851 314.507,238.750 314.411,238.100 314.406 C 237.469 314.402,237.200 314.161,237.200 313.600 C 237.200 312.989,236.933 312.800,236.070 312.800 C 235.381 312.800,234.572 312.409,234.000 311.800 C 233.456 311.221,232.614 310.800,232.000 310.800 C 231.386 310.800,230.544 310.379,230.000 309.800 C 229.483 309.250,228.642 308.800,228.130 308.800 C 227.405 308.800,227.200 308.580,227.200 307.800 C 227.200 306.867,227.067 306.800,225.200 306.800 C 223.333 306.800,223.200 306.733,223.200 305.800 C 223.200 304.969,223.009 304.800,222.070 304.800 C 221.381 304.800,220.572 304.409,220.000 303.800 C 219.456 303.221,218.614 302.800,218.000 302.800 C 217.386 302.800,216.544 302.379,216.000 301.800 C 215.483 301.250,214.642 300.800,214.130 300.800 C 213.405 300.800,213.200 300.580,213.200 299.800 C 213.200 298.867,213.067 298.800,211.200 298.800 C 209.333 298.800,209.200 298.733,209.200 297.800 C 209.200 296.867,209.067 296.800,207.200 296.800 C 205.333 296.800,205.200 296.733,205.200 295.800 C 205.200 294.969,205.009 294.800,204.070 294.800 C 203.381 294.800,202.572 294.409,202.000 293.800 C 201.456 293.221,200.614 292.800,200.000 292.800 C 199.386 292.800,198.544 292.379,198.000 291.800 C 197.483 291.250,196.642 290.800,196.130 290.800 C 195.405 290.800,195.200 290.580,195.200 289.800 C 195.200 288.867,195.067 288.800,193.200 288.800 C 191.333 288.800,191.200 288.733,191.200 287.800 C 191.200 286.981,191.005 286.800,190.122 286.800 C 189.513 286.800,188.583 286.359,187.985 285.786 C 187.093 284.931,186.763 284.834,185.882 285.169 C 185.029 285.493,184.879 285.459,185.062 284.983 C 185.185 284.662,185.476 284.400,185.709 284.400 C 185.943 284.400,186.029 284.295,185.901 284.168 C 185.773 284.040,185.321 284.121,184.896 284.349 C 184.342 284.645,183.976 284.626,183.607 284.281 C 183.193 283.895,183.136 283.984,183.316 284.732 M178.806 315.104 C 178.818 315.660,179.587 316.632,179.594 316.100 C 179.597 315.825,179.870 315.600,180.200 315.600 C 181.214 315.600,180.864 314.980,179.800 314.892 C 179.250 314.846,178.803 314.942,178.806 315.104 M219.688 341.244 C 219.749 341.530,219.545 341.772,219.233 341.782 C 218.922 341.792,218.601 341.998,218.520 342.239 C 218.435 342.496,218.836 342.653,219.487 342.618 C 220.659 342.556,221.118 341.239,220.088 340.896 C 219.806 340.802,219.626 340.959,219.688 341.244 M216.800 345.800 C 216.800 346.985,217.230 347.072,218.138 346.069 C 219.043 345.068,218.971 344.800,217.800 344.800 C 217.000 344.800,216.800 345.000,216.800 345.800 M210.800 353.800 C 210.800 354.985,211.230 355.072,212.138 354.069 C 213.043 353.068,212.971 352.800,211.800 352.800 C 211.000 352.800,210.800 353.000,210.800 353.800 M206.938 359.417 C 206.808 359.757,206.809 360.142,206.941 360.274 C 207.226 360.559,208.400 359.655,208.400 359.151 C 208.400 358.547,207.187 358.768,206.938 359.417 M206.134 361.100 C 206.371 361.491,205.360 362.426,205.043 362.109 C 204.909 361.976,204.800 362.077,204.800 362.333 C 204.800 363.018,205.383 362.903,206.138 362.069 C 206.901 361.225,206.981 360.800,206.376 360.800 C 206.143 360.800,206.035 360.935,206.134 361.100 M202.172 367.155 C 202.293 367.350,202.123 367.732,201.796 368.004 C 201.468 368.276,201.200 368.379,201.200 368.233 C 201.200 368.088,200.949 368.201,200.642 368.484 C 200.335 368.768,200.153 369.115,200.238 369.255 C 200.463 369.628,199.373 370.440,199.063 370.130 C 198.918 369.985,198.800 370.077,198.800 370.333 C 198.800 371.120,199.262 370.869,201.063 369.100 C 202.815 367.379,203.146 366.800,202.376 366.800 C 202.143 366.800,202.051 366.960,202.172 367.155 M196.172 375.155 C 196.444 375.595,195.425 376.492,195.063 376.130 C 194.918 375.985,194.800 376.085,194.800 376.352 C 194.800 376.618,194.358 377.278,193.818 377.818 C 193.278 378.358,193.001 378.800,193.202 378.800 C 193.404 378.800,193.801 378.519,194.084 378.175 C 194.368 377.831,195.095 377.081,195.700 376.509 C 196.849 375.421,197.095 374.800,196.376 374.800 C 196.143 374.800,196.051 374.960,196.172 375.155 M171.342 381.749 C 171.378 382.339,171.593 382.624,171.910 382.502 C 172.265 382.366,172.296 382.157,172.014 381.816 C 171.790 381.547,171.725 381.208,171.870 381.063 C 172.015 380.918,171.942 380.800,171.709 380.800 C 171.476 380.800,171.311 381.227,171.342 381.749 M189.784 382.027 C 189.639 382.261,189.616 382.549,189.733 382.667 C 190.020 382.953,190.800 382.448,190.800 381.976 C 190.800 381.465,190.109 381.499,189.784 382.027 M175.342 383.749 C 175.378 384.339,175.593 384.624,175.910 384.502 C 176.265 384.366,176.296 384.157,176.014 383.816 C 175.790 383.547,175.725 383.208,175.870 383.063 C 176.015 382.918,175.942 382.800,175.709 382.800 C 175.476 382.800,175.311 383.227,175.342 383.749 M185.784 384.027 C 185.639 384.261,185.616 384.549,185.733 384.667 C 186.020 384.953,186.800 384.448,186.800 383.976 C 186.800 383.465,186.109 383.499,185.784 384.027 " stroke="none" fill="#34bd80" fill-rule="evenodd"></path><path id="path4" d="M193.271 240.340 C 192.401 240.584,215.109 240.529,220.800 240.273 C 222.230 240.209,216.830 240.139,208.800 240.118 C 200.770 240.097,193.782 240.197,193.271 240.340 M186.400 271.034 C 186.400 271.371,186.232 271.544,186.028 271.417 C 185.419 271.041,185.251 271.691,185.161 274.778 C 185.091 277.189,184.952 277.740,184.375 277.891 C 183.523 278.113,183.213 279.156,183.205 281.820 C 183.199 284.161,183.738 284.968,184.896 284.349 C 185.321 284.121,185.773 284.040,185.901 284.168 C 186.029 284.295,185.943 284.400,185.709 284.400 C 185.476 284.400,185.185 284.662,185.062 284.983 C 184.879 285.459,185.029 285.493,185.882 285.169 C 186.763 284.834,187.093 284.931,187.985 285.786 C 188.583 286.359,189.513 286.800,190.122 286.800 C 191.005 286.800,191.200 286.981,191.200 287.800 C 191.200 288.733,191.333 288.800,193.200 288.800 C 195.067 288.800,195.200 288.867,195.200 289.800 C 195.200 290.580,195.405 290.800,196.130 290.800 C 196.642 290.800,197.483 291.250,198.000 291.800 C 198.544 292.379,199.386 292.800,200.000 292.800 C 200.614 292.800,201.456 293.221,202.000 293.800 C 202.572 294.409,203.381 294.800,204.070 294.800 C 205.009 294.800,205.200 294.969,205.200 295.800 C 205.200 296.733,205.333 296.800,207.200 296.800 C 209.067 296.800,209.200 296.867,209.200 297.800 C 209.200 298.733,209.333 298.800,211.200 298.800 C 213.067 298.800,213.200 298.867,213.200 299.800 C 213.200 300.580,213.405 300.800,214.130 300.800 C 214.642 300.800,215.483 301.250,216.000 301.800 C 216.544 302.379,217.386 302.800,218.000 302.800 C 218.614 302.800,219.456 303.221,220.000 303.800 C 220.572 304.409,221.381 304.800,222.070 304.800 C 223.009 304.800,223.200 304.969,223.200 305.800 C 223.200 306.733,223.333 306.800,225.200 306.800 C 227.067 306.800,227.200 306.867,227.200 307.800 C 227.200 308.580,227.405 308.800,228.130 308.800 C 228.642 308.800,229.483 309.250,230.000 309.800 C 230.544 310.379,231.386 310.800,232.000 310.800 C 232.614 310.800,233.456 311.221,234.000 311.800 C 234.572 312.409,235.381 312.800,236.070 312.800 C 236.933 312.800,237.200 312.989,237.200 313.600 C 237.200 314.161,237.469 314.402,238.100 314.406 C 238.768 314.411,238.858 314.502,238.449 314.761 C 237.796 315.175,238.192 316.000,239.043 316.000 C 239.665 316.000,241.290 312.869,240.952 312.322 C 240.846 312.150,241.038 312.116,241.379 312.247 C 241.722 312.379,242.000 312.276,242.000 312.019 C 242.000 311.763,242.208 311.681,242.462 311.838 C 242.734 312.007,242.816 311.949,242.660 311.697 C 242.515 311.462,242.886 310.913,243.485 310.476 C 244.195 309.959,244.591 309.286,244.624 308.542 C 244.739 305.956,244.817 305.563,245.172 305.783 C 245.377 305.909,245.658 305.830,245.796 305.607 C 245.934 305.383,245.857 305.200,245.624 305.200 C 245.391 305.200,245.200 304.840,245.200 304.400 C 245.200 303.960,245.374 303.600,245.587 303.600 C 245.801 303.600,245.874 303.915,245.750 304.300 C 245.563 304.880,245.596 304.899,245.942 304.409 C 246.244 303.981,246.200 303.641,245.780 303.178 C 245.461 302.825,245.200 302.249,245.200 301.897 C 245.200 301.423,244.639 301.187,243.030 300.986 C 241.493 300.794,240.598 300.436,239.960 299.758 C 239.450 299.214,238.602 298.800,238.000 298.800 C 237.386 298.800,236.544 298.379,236.000 297.800 C 235.483 297.250,234.642 296.800,234.130 296.800 C 233.405 296.800,233.200 296.580,233.200 295.800 C 233.200 294.941,233.017 294.798,231.900 294.787 C 231.185 294.781,229.700 294.332,228.600 293.791 C 227.500 293.250,226.233 292.806,225.785 292.804 C 225.337 292.802,224.083 291.900,223.000 290.800 C 221.776 289.557,220.684 288.800,220.115 288.800 C 219.406 288.800,219.200 288.575,219.200 287.800 C 219.200 286.859,219.075 286.800,217.070 286.800 C 215.315 286.800,214.774 286.624,214.000 285.800 C 213.483 285.250,212.642 284.800,212.130 284.800 C 211.405 284.800,211.200 284.580,211.200 283.800 C 211.200 282.962,211.011 282.800,210.033 282.800 C 208.350 282.800,205.586 281.489,204.225 280.046 C 203.568 279.349,202.643 278.800,202.125 278.800 C 201.405 278.800,201.200 278.578,201.200 277.800 C 201.200 276.969,201.009 276.800,200.070 276.800 C 199.381 276.800,198.572 276.409,198.000 275.800 C 197.456 275.221,196.614 274.800,196.000 274.800 C 195.386 274.800,194.544 274.379,194.000 273.800 C 193.480 273.246,192.611 272.800,192.052 272.800 C 191.498 272.800,190.584 272.374,190.022 271.853 C 188.737 270.662,186.400 270.133,186.400 271.034 M236.939 316.272 C 237.065 316.398,236.906 317.154,236.586 317.951 C 236.134 319.077,236.125 319.244,236.546 318.700 C 237.117 317.963,237.824 317.714,237.400 318.400 C 237.054 318.960,237.740 318.900,238.320 318.320 C 238.923 317.717,238.950 317.060,238.357 317.426 C 238.066 317.606,237.998 317.437,238.157 316.935 C 238.341 316.356,238.194 316.155,237.555 316.107 C 237.090 316.072,236.813 316.146,236.939 316.272 M234.686 321.593 C 234.510 322.268,234.592 322.325,235.239 321.979 C 236.125 321.505,236.249 320.800,235.447 320.800 C 235.142 320.800,234.800 321.157,234.686 321.593 M227.714 331.880 C 227.227 332.386,226.974 332.800,227.152 332.800 C 227.542 332.800,228.998 331.245,228.764 331.077 C 228.674 331.013,228.201 331.374,227.714 331.880 " stroke="none" fill="#34b47c" fill-rule="evenodd"></path></g></svg>